PathFileType	4	(X/Y/Z)	/Users/itak/Documents/Research/Walk-IL/dataset/trc/00283_00010.trc
DataRate	CameraRate	NumFrames	NumMarkers	Units	OrigDataRate	OrigDataStartFrame	OrigNumFrames
100.000000	100.000000	4	54	mm	100.000000	481	642
Frame#	Time	RPSI			LPSI			L3			STRN			T10			C7			CLAV			RBAK			LBAK			LSHO			LUPA			LAEL			LAOL			LWTS			LWPS			LFRA			LIFD			LHPS			LHTS			RSHO			RUPA			RAEL			RAOL			RWTS			RWPS			RFRA			RIFD			RHTS			RHPS			RBHD			LFHD			RFHD			LBHD			LHIP			RASI			LASI			LKNE			LTHI			LANK			LTIP			LTOE			LMT1			LMT5			LHEE			RKNE			RANK			RTIP			RTOE			RMT1			RMT5			RHEE			RHIP			RTHI			*53			
		X1	Y1	Z1	X2	Y2	Z2	X3	Y3	Z3	X4	Y4	Z4	X5	Y5	Z5	X6	Y6	Z6	X7	Y7	Z7	X8	Y8	Z8	X9	Y9	Z9	X10	Y10	Z10	X11	Y11	Z11	X12	Y12	Z12	X13	Y13	Z13	X14	Y14	Z14	X15	Y15	Z15	X16	Y16	Z16	X17	Y17	Z17	X18	Y18	Z18	X19	Y19	Z19	X20	Y20	Z20	X21	Y21	Z21	X22	Y22	Z22	X23	Y23	Z23	X24	Y24	Z24	X25	Y25	Z25	X26	Y26	Z26	X27	Y27	Z27	X28	Y28	Z28	X29	Y29	Z29	X30	Y30	Z30	X31	Y31	Z31	X32	Y32	Z32	X33	Y33	Z33	X34	Y34	Z34	X35	Y35	Z35	X36	Y36	Z36	X37	Y37	Z37	X38	Y38	Z38	X39	Y39	Z39	X40	Y40	Z40	X41	Y41	Z41	X42	Y42	Z42	X43	Y43	Z43	X44	Y44	Z44	X45	Y45	Z45	X46	Y46	Z46	X47	Y47	Z47	X48	Y48	Z48	X49	Y49	Z49	X50	Y50	Z50	X51	Y51	Z51	X52	Y52	Z52	X53	Y53	Z53	X54	Y54	Z54	

482	4.81	-664.6515502929688	985.081787109375	340.6227722167969	-494.0774536132812	976.8072509765625	298.829345703125	-559.9734497070312	1052.655395507812	324.3101806640625	-497.4630737304688	1228.962036132812	566.1069946289062	-547.7646484375	1167.395751953125	304.5840759277344	-506.3932800292969	1411.133178710938	347.2672424316406	-497.7663879394531	1327.785400390625	501.163818359375	-596.0586547851562	1279.988159179688	304.0107116699219	-408.88134765625	1368.096313476562	314.007080078125	-344.103515625	1368.25341796875	396.2107238769531	-283.210693359375	1246.204711914062	358.1023254394531	-282.6684265136719	1056.1181640625	374.1943359375	-344.9634704589844	1019.745544433594	322.9098815917969	-323.6434631347656	1016.109497070312	585.56591796875	-266.4812316894531	972.43017578125	580.3994750976562	-272.4796142578125	1006.862060546875	447.7131042480469	-337.2705383300781	934.2235107421875	754.716064453125	-274.6473388671875	936.6192016601562	661.6829833984375	-307.4807434082031	989.3513793945312	683.9660034179688	-656.781494140625	1398.721313476562	431.9964904785156	-728.4288940429688	1351.075317382812	426.52783203125	-798.2128295898438	1105.090454101562	349.9637145996094	-707.5044555664062	1096.539916992188	322.7016906738281	-777.7544555664062	855.7864379882812	377.9136047363281	-850.1964111328125	874.747802734375	337.4045104980469	-819.9448852539062	1036.668701171875	354.0154724121094	-788.9825439453125	684.8557739257812	310.8213500976562	-810.4979248046875	739.8250732421875	374.7375183105469	-854.95751953125	760.443603515625	318.1435546875	-569.6488037109375	1578.607177734375	421.9048767089844	-401.50537109375	1574.562133789062	552.9407958984375	-489.5624389648438	1577.07958984375	581.1812133789062	-430.3817749023438	1565.432739257812	379.0586853027344	-386.2149658203125	924.1690673828125	340.5538330078125	-636.1764526367188	943.0342407226562	559.2229614257812	-392.8689880371094	930.3601684570312	487.5378723144531	-475.5324401855469	465.8253784179688	367.0334777832031	-426.9492797851562	602.4231567382812	375.0327453613281	-558.846923828125	52.93965148925781	212.6568756103516	-512.9320678710938	248.5380706787109	290.5777893066406	-691.0836181640625	38.94375991821289	384.0637512207031	-699.4993286132812	32.85822296142578	302.4500427246094	-592.7659912109375	45.140869140625	332.7802124023438	-599.7353515625	53.94887542724609	149.0728302001953	-674.0926513671875	504.915771484375	648.0623168945312	-684.6917114257812	55.80757904052734	745.208251953125	-658.3179931640625	392.9307250976562	697.1725463867188	-520.7386474609375	111.1647109985352	846.272705078125	-525.77734375	85.7998046875	782.1373901367188	-630.4696655273438	72.88632965087891	835.3140258789062	-681.2464599609375	38.76441955566406	675.182861328125	-738.8539428710938	940.63525390625	466.615966796875	-717.0985107421875	752.508056640625	573.0479736328125	nan	nan	nan	
483	4.82	-665.666259765625	982.8309936523438	350.5155334472656	-495.4169616699219	975.3302612304688	307.2960815429688	-561.090087890625	1050.642822265625	332.9253845214844	-496.520263671875	1227.44482421875	573.9947509765625	-548.9327392578125	1165.773315429688	312.7710571289062	-507.0252380371094	1409.4833984375	355.235107421875	-497.2338256835938	1326.199584960938	508.9839172363281	-597.2230224609375	1278.3974609375	312.6751708984375	-409.8181457519531	1366.368896484375	321.0897521972656	-344.3564758300781	1366.470092773438	402.7240295410156	-283.9068908691406	1244.263061523438	364.0597229003906	-283.7348327636719	1054.36328125	379.8578491210938	-346.7182312011719	1017.756774902344	329.5943908691406	-321.9671630859375	1018.766723632812	592.02490234375	-265.2608337402344	974.39892578125	586.9459838867188	-272.7843627929688	1006.362121582031	453.740234375	-333.7718505859375	940.9630737304688	763.1455078125	-272.5067749023438	940.5374755859375	669.1368408203125	-304.44384765625	994.110595703125	690.6477661132812	-656.75439453125	1397.16748046875	441.1886596679688	-728.443359375	1349.621215820312	436.2197570800781	-798.3722534179688	1103.581787109375	359.6769104003906	-707.8532104492188	1095.305053710938	331.9767761230469	-777.519287109375	854.160400390625	386.4197387695312	-850.2926025390625	873.2659301757812	346.4700317382812	-819.9891967773438	1035.126953125	363.71923828125	-788.6824340820312	684.026611328125	317.2539978027344	-810.1910400390625	738.182373046875	383.2244567871094	-854.7409057617188	759.096435546875	326.0920715332031	-569.8665771484375	1576.82568359375	430.9804992675781	-400.4036865234375	1572.651977539062	560.2171630859375	-488.1888427734375	1575.076049804688	589.3885498046875	-431.0752563476562	1563.7783203125	386.6263427734375	-386.8641967773438	923.0537109375	347.83984375	-635.206787109375	941.5350952148438	569.0028686523438	-392.730224609375	929.0215454101562	495.0684814453125	-474.7254028320312	465.5840759277344	368.7681884765625	-426.1950378417969	602.07861328125	378.3065490722656	-559.2113037109375	53.3570556640625	212.5709991455078	-512.5260009765625	248.9712066650391	290.9292602539062	-691.0220947265625	38.93031692504883	384.1572570800781	-699.611572265625	33.29943084716797	302.6874694824219	-592.7434692382812	45.21374130249023	332.7568054199219	-600.2526245117188	55.03976058959961	149.0825347900391	-670.9968872070312	502.3500366210938	657.2817993164062	-669.3068237304688	55.86816024780273	767.6937255859375	-652.83935546875	392.3539123535156	708.5984497070312	-505.8513793945312	118.5135116577148	865.3907470703125	-510.88720703125	91.39887237548828	802.0366821289062	-614.6911010742188	76.90495300292969	856.7682495117188	-666.1778564453125	37.04794692993164	698.0305786132812	-738.6148681640625	938.3170166015625	477.2157287597656	-716.0554809570312	749.9884033203125	583.2796630859375	nan	nan	nan	
484	4.83	-666.6167602539062	980.4696044921875	360.5860290527344	-496.705810546875	973.8573608398438	315.8685913085938	-562.1431274414062	1048.50146484375	341.7005310058594	-495.6498107910156	1225.803955078125	582.0083618164062	-550.044677734375	1164.002807617188	321.0965270996094	-507.5881042480469	1407.703002929688	363.2933349609375	-496.738037109375	1324.491088867188	516.92236328125	-598.3109130859375	1276.628051757812	321.4038391113281	-410.655029296875	1364.506469726562	328.3521423339844	-344.5858764648438	1364.542236328125	409.4635009765625	-284.5174865722656	1242.223510742188	370.2949523925781	-284.5965270996094	1052.488403320312	385.7017822265625	-348.2076721191406	1015.662719726562	336.4043884277344	-320.2166442871094	1020.699951171875	598.4679565429688	-263.9717407226562	975.751953125	593.4915161132812	-272.9004821777344	1005.564453125	459.8896789550781	-330.2257690429688	946.5503540039062	771.2569580078125	-270.2506713867188	943.6398315429688	676.4302978515625	-301.4019165039062	997.92041015625	697.2332153320312	-656.6961669921875	1395.492797851562	450.348388671875	-728.4237670898438	1348.044921875	445.8440551757812	-798.5228271484375	1101.862915039062	369.5799560546875	-708.174560546875	1093.769897460938	341.5235900878906	-777.445068359375	852.36328125	395.5156860351562	-850.4769897460938	871.611572265625	355.987548828125	-820.0513305664062	1033.395751953125	373.694580078125	-788.6210327148438	682.8657836914062	324.6716613769531	-810.0372314453125	736.3676147460938	392.2882690429688	-854.7040405273438	757.5328979492188	334.7166137695312	-569.9862670898438	1574.983032226562	440.0646667480469	-399.2499084472656	1570.643310546875	567.5396118164062	-486.7686157226562	1573.016723632812	597.6156616210938	-431.6665954589844	1561.991943359375	394.2559814453125	-387.437255859375	921.982421875	355.1946105957031	-634.0755004882812	939.8324584960938	578.8756713867188	-392.5740051269531	927.57080078125	502.6352844238281	-473.7926330566406	465.3493957519531	370.7120361328125	-425.3653869628906	601.7503662109375	381.7022705078125	-559.58251953125	53.82719421386719	212.5057525634766	-512.08642578125	249.4536743164062	291.4054870605469	-690.9469604492188	38.92230606079102	384.2560729980469	-699.7192993164062	33.78596115112305	302.9393310546875	-592.7145385742188	45.29414749145508	332.7569580078125	-600.8178100585938	56.26018142700195	149.094482421875	-667.6923828125	499.650390625	666.5486450195312	-654.5332641601562	56.11119079589844	788.5445556640625	-647.2684326171875	391.5945434570312	719.79833984375	-491.870849609375	125.3963012695312	883.1875	-496.7613220214844	96.64861297607422	820.5819091796875	-599.792236328125	80.86034393310547	876.6432495117188	-651.6057739257812	35.64404296875	719.2390747070312	-738.2200317382812	935.7632446289062	488.0024108886719	-714.92333984375	747.0948486328125	593.4580078125	nan	nan	nan	
485	4.84	-667.5133666992188	978.0306396484375	370.8484497070312	-497.966796875	972.4086303710938	324.5430908203125	-563.1414794921875	1046.268676757812	350.6401062011719	-494.823974609375	1224.047241210938	590.15283203125	-551.1011352539062	1162.093505859375	329.5794982910156	-508.0972290039062	1405.80224609375	371.4515075683594	-496.2729797363281	1322.675048828125	524.994873046875	-599.2968139648438	1274.682739257812	330.2341003417969	-411.4088439941406	1362.526977539062	335.7899169921875	-344.7991943359375	1362.496826171875	416.4197082519531	-285.0472717285156	1240.111938476562	376.7841491699219	-285.2415466308594	1050.515502929688	391.7312927246094	-349.4222717285156	1013.488647460938	343.3365478515625	-318.3841552734375	1021.905639648438	604.939697265625	-262.5832824707031	976.4800415039062	600.0503540039062	-272.8179016113281	1004.486145019531	466.1580810546875	-326.6482543945312	950.93310546875	779.1083374023438	-267.8889770507812	945.88623046875	683.5942993164062	-298.3623046875	1000.75537109375	703.7745971679688	-656.6124877929688	1393.699951171875	459.5003051757812	-728.3771362304688	1346.34033203125	455.4329528808594	-798.67431640625	1099.950317382812	379.6817932128906	-708.47607421875	1091.948974609375	351.3335571289062	-777.501708984375	850.4049682617188	405.1837158203125	-850.7423706054688	869.7865600585938	365.9830932617188	-820.1399536132812	1031.490844726562	383.93994140625	-788.7596435546875	681.34033203125	333.1226501464844	-810.006103515625	734.3909301757812	401.912109375	-854.8629760742188	755.7586059570312	344.0620727539062	-570.0162963867188	1573.090209960938	449.1552124023438	-398.0516967773438	1568.556396484375	574.909912109375	-485.302001953125	1570.916381835938	605.86328125	-432.1665344238281	1560.097290039062	401.9461059570312	-387.9593505859375	920.9671630859375	362.59912109375	-632.733154296875	937.9114379882812	588.8251953125	-392.28857421875	926.0247192382812	510.2162780761719	-472.7792358398438	465.092529296875	372.9629821777344	-424.4988403320312	601.4151000976562	385.2940979003906	-559.9769897460938	54.35091018676758	212.4663238525391	-511.6268310546875	249.9607849121094	292.080322265625	-690.86181640625	38.915283203125	384.3645324707031	-699.8251342773438	34.30826950073242	303.2108764648438	-592.68359375	45.38424682617188	332.7849426269531	-601.421630859375	57.61394882202148	149.1177978515625	-664.1484375	496.8988647460938	675.9579467773438	-640.556396484375	56.34794235229492	807.6595458984375	-641.5886840820312	390.6298522949219	730.838623046875	-478.7833251953125	131.452880859375	899.5126342773438	-483.4867553710938	101.2385787963867	837.5921630859375	-585.8290405273438	84.43272399902344	894.833984375	-637.7920532226562	34.4211311340332	738.6751708984375	-737.6561279296875	932.9930419921875	499.0061340332031	-713.65625	743.884521484375	603.6029052734375	nan	nan	nan	
